<svg xmlns="http://www.w3.org/2000/svg" id="loading" width="32" height="32" fill="#fff" viewBox="0 0 32 32"><path d="M14 0 H18 V8 H14 z" opacity=".1" transform="rotate(0 16 16)"><animate attributeName="opacity" begin="0" dur="1s" from="1" repeatCount="indefinite" to=".1"/></path><path d="M14 0 H18 V8 H14 z" opacity=".1" transform="rotate(45 16 16)"><animate attributeName="opacity" begin="0.125s" dur="1s" from="1" repeatCount="indefinite" to=".1"/></path><path d="M14 0 H18 V8 H14 z" opacity=".1" transform="rotate(90 16 16)"><animate attributeName="opacity" begin="0.25s" dur="1s" from="1" repeatCount="indefinite" to=".1"/></path><path d="M14 0 H18 V8 H14 z" opacity=".1" transform="rotate(135 16 16)"><animate attributeName="opacity" begin="0.375s" dur="1s" from="1" repeatCount="indefinite" to=".1"/></path><path d="M14 0 H18 V8 H14 z" opacity=".1" transform="rotate(180 16 16)"><animate attributeName="opacity" begin="0.5s" dur="1s" from="1" repeatCount="indefinite" to=".1"/></path><path d="M14 0 H18 V8 H14 z" opacity=".1" transform="rotate(225 16 16)"><animate attributeName="opacity" begin="0.675s" dur="1s" from="1" repeatCount="indefinite" to=".1"/></path><path d="M14 0 H18 V8 H14 z" opacity=".1" transform="rotate(270 16 16)"><animate attributeName="opacity" begin="0.75s" dur="1s" from="1" repeatCount="indefinite" to=".1"/></path><path d="M14 0 H18 V8 H14 z" opacity=".1" transform="rotate(315 16 16)"><animate attributeName="opacity" begin="0.875s" dur="1s" from="1" repeatCount="indefinite" to=".1"/></path></svg>